<svg width="15" height="14" viewBox="0 0 15 14" fill="none" xmlns="http://www.w3.org/2000/svg">
<path d="M6.24888 1.02611C6.8358 0.0821344 8.20967 0.0821353 8.79659 1.02611L10.0561 3.05186C10.2626 3.38399 10.5907 3.62233 10.9703 3.71609L13.2862 4.28797C14.3653 4.55446 14.7899 5.86109 14.0734 6.71099L12.5361 8.53485C12.284 8.83388 12.1587 9.21952 12.1868 9.6096L12.3586 11.9888C12.4386 13.0975 11.3271 13.905 10.2974 13.4863L8.08777 12.5878C7.72548 12.4404 7.31999 12.4404 6.95771 12.5878L4.74803 13.4863C3.71835 13.905 2.60686 13.0975 2.68689 11.9888L2.85863 9.6096C2.88678 9.21952 2.76148 8.83388 2.50942 8.53485L0.972025 6.71098C0.255622 5.86109 0.680173 4.55446 1.75931 4.28797L4.07513 3.71609C4.45481 3.62233 4.78287 3.38399 4.98937 3.05186L6.24888 1.02611Z" fill="#F6C002"/>
</svg>
