<svg width="27" height="26" viewBox="0 0 27 26" fill="none" xmlns="http://www.w3.org/2000/svg">
<path fill-rule="evenodd" clip-rule="evenodd" d="M12.4166 4.33341C8.22847 4.33341 4.83329 7.72859 4.83329 11.9167C4.83329 16.1049 8.22847 19.5001 12.4166 19.5001C16.6048 19.5001 20 16.1049 20 11.9167C20 7.72859 16.6048 4.33341 12.4166 4.33341ZM2.66663 11.9167C2.66663 6.53197 7.03185 2.16675 12.4166 2.16675C17.8014 2.16675 22.1666 6.53197 22.1666 11.9167C22.1666 17.3015 17.8014 21.6667 12.4166 21.6667C7.03185 21.6667 2.66663 17.3015 2.66663 11.9167Z" fill="white"/>
<path fill-rule="evenodd" clip-rule="evenodd" d="M17.7715 17.2714C18.1946 16.8483 18.8805 16.8483 19.3036 17.2714L24.0161 21.9839C24.4392 22.407 24.4392 23.0929 24.0161 23.516C23.593 23.939 22.9071 23.939 22.484 23.516L17.7715 18.8035C17.3485 18.3804 17.3485 17.6945 17.7715 17.2714Z" fill="white"/>
</svg>
