<svg width="29" height="26" viewBox="0 0 29 26" fill="none" xmlns="http://www.w3.org/2000/svg">
<path opacity="0.3" d="M26.1028 2.26403C25.3955 1.5459 24.5558 0.97632 23.6316 0.587847C22.7074 0.199373 21.7168 -0.00038082 20.7166 5.45039e-07C19.7163 0.00038191 18.7259 0.200891 17.802 0.590069C16.8781 0.979247 16.0388 1.54947 15.332 2.26814L14.4094 3.21626L13.4945 2.27019L13.4886 2.26415C12.7816 1.54636 11.9423 0.97697 11.0186 0.588502C10.0949 0.200034 9.10491 9.20016e-05 8.10512 9.20016e-05C7.10532 9.20016e-05 6.11531 0.200034 5.19162 0.588502C4.26793 0.97697 3.42864 1.54636 2.72168 2.26415L2.31068 2.68144C0.88292 4.13108 0.0808105 6.09721 0.0808105 8.14731C0.0808105 10.1974 0.88292 12.1635 2.31068 13.6132L13.158 24.6265L14.383 25.9296L14.4122 25.8999L14.4439 25.9321L15.5916 24.7026L26.5138 13.613C27.9395 12.1622 28.7401 10.1965 28.7401 8.14713C28.7401 6.09775 27.9395 4.13205 26.5138 2.68126L26.1028 2.26403ZM25.1677 12.2465L14.4122 23.167L3.65645 12.2465C2.58563 11.1593 1.98406 9.68472 1.98406 8.14716C1.98406 6.60959 2.58563 5.13499 3.65645 4.04777L4.06751 3.63047C5.13781 2.54379 6.58928 1.93304 8.10291 1.93246C9.61654 1.93188 11.0685 2.54152 12.1396 3.62739L14.4053 5.96974L16.6818 3.63047C17.212 3.09213 17.8415 2.66509 18.5343 2.37374C19.227 2.08239 19.9695 1.93243 20.7194 1.93243C21.4692 1.93243 22.2117 2.08239 22.9045 2.37374C23.5973 2.66509 24.2267 3.09213 24.7569 3.63047L25.1679 4.04771C26.2372 5.13583 26.8376 6.61013 26.8376 8.14717C26.8375 9.68422 26.237 11.1585 25.1677 12.2465Z" fill="#5E81F4"/>
</svg>
