<svg width="26" height="21" viewBox="0 0 26 21" fill="none" xmlns="http://www.w3.org/2000/svg">
<path fill-rule="evenodd" clip-rule="evenodd" d="M7.19169 2.7334L1.7646 12.1334C0.994797 13.4667 1.95705 15.1334 3.49665 15.1334H8.75769L13.2863 7.28959L10.6558 2.7334C9.88599 1.40006 7.96149 1.40007 7.19169 2.7334ZM13.8637 6.28959L13.9923 6.06673C15.147 4.06673 18.0338 4.06673 19.1885 6.06673L24.6156 15.4667C25.7703 17.4667 24.3269 19.9667 22.0175 19.9667H11.1633C9.10517 19.9667 7.73486 17.9811 8.27839 16.1334H3.49665C1.18724 16.1334 -0.256126 13.6334 0.898575 11.6334L6.32566 2.2334C7.48036 0.233396 10.3671 0.233401 11.5218 2.2334L13.8637 6.28959ZM14.441 7.28959L14.8584 6.56673C15.6282 5.2334 17.5527 5.2334 18.3225 6.56673L23.7495 15.9667C24.5193 17.3001 23.5571 18.9667 22.0175 18.9667H11.1633C9.68727 18.9667 8.74189 17.4348 9.34471 16.1334H14.3508C16.6602 16.1334 18.1036 13.6334 16.9489 11.6334L14.441 7.28959ZM9.91239 15.1334L13.8637 8.28959L16.0829 12.1334C16.8527 13.4667 15.8904 15.1334 14.3508 15.1334H9.91239Z" fill="#5E81F4"/>
<path d="M1.7646 12.1334L1.33159 11.8834L1.7646 12.1334ZM7.19169 2.7334L7.6247 2.9834V2.9834L7.19169 2.7334ZM8.75769 15.1334L9.1907 15.3834L9.04636 15.6334H8.75769V15.1334ZM13.2863 7.28959L13.7193 7.03959L13.8637 7.28959L13.7193 7.53959L13.2863 7.28959ZM10.6558 2.7334L11.0888 2.4834V2.4834L10.6558 2.7334ZM13.8637 6.28959L14.2967 6.53959L13.8637 7.28959L13.4306 6.53959L13.8637 6.28959ZM13.9923 6.06673L14.4253 6.31673V6.31673L13.9923 6.06673ZM19.1885 6.06673L18.7555 6.31673L19.1885 6.06673ZM24.6156 15.4667L24.1826 15.7167L24.6156 15.4667ZM8.27839 16.1334V15.6334H8.94665L8.75806 16.2745L8.27839 16.1334ZM0.898575 11.6334L1.33159 11.8834L0.898575 11.6334ZM6.32566 2.2334L6.75868 2.4834V2.4834L6.32566 2.2334ZM11.5218 2.2334L11.0888 2.4834L11.5218 2.2334ZM14.441 7.28959L14.008 7.53959L13.8637 7.28959L14.008 7.03959L14.441 7.28959ZM14.8584 6.56673L14.4253 6.31673L14.4253 6.31673L14.8584 6.56673ZM18.3225 6.56673L18.7555 6.31673L18.3225 6.56673ZM23.7495 15.9667L23.3165 16.2167H23.3165L23.7495 15.9667ZM9.34471 16.1334L8.89102 15.9232L9.02528 15.6334H9.34471V16.1334ZM16.9489 11.6334L17.3819 11.3834H17.3819L16.9489 11.6334ZM9.91239 15.1334V15.6334H9.04636L9.47938 14.8834L9.91239 15.1334ZM13.8637 8.28959L13.4306 8.03959L13.8637 7.28959L14.2967 8.03959L13.8637 8.28959ZM16.0829 12.1334L16.5159 11.8834L16.0829 12.1334ZM1.33159 11.8834L6.75868 2.4834L7.6247 2.9834L2.19761 12.3834L1.33159 11.8834ZM3.49665 15.6334C1.57215 15.6334 0.369335 13.5501 1.33159 11.8834L2.19761 12.3834C1.62026 13.3834 2.34195 14.6334 3.49665 14.6334V15.6334ZM8.75769 15.6334H3.49665V14.6334H8.75769V15.6334ZM8.32467 14.8834L12.8533 7.03959L13.7193 7.53959L9.1907 15.3834L8.32467 14.8834ZM11.0888 2.4834L13.7193 7.03959L12.8533 7.53959L10.2228 2.9834L11.0888 2.4834ZM6.75868 2.4834C7.72092 0.816731 10.1266 0.816733 11.0888 2.4834L10.2228 2.9834C9.64543 1.9834 8.20205 1.9834 7.6247 2.9834L6.75868 2.4834ZM13.4306 6.03959L13.5593 5.81673L14.4253 6.31673L14.2967 6.53959L13.4306 6.03959ZM13.5593 5.81673C14.9065 3.48339 18.2743 3.4834 19.6215 5.81673L18.7555 6.31673C17.7932 4.65007 15.3876 4.65006 14.4253 6.31673L13.5593 5.81673ZM19.6215 5.81673L25.0486 15.2167L24.1826 15.7167L18.7555 6.31673L19.6215 5.81673ZM25.0486 15.2167C26.3957 17.5501 24.7118 20.4667 22.0175 20.4667V19.4667C23.942 19.4667 25.1448 17.3834 24.1826 15.7167L25.0486 15.2167ZM22.0175 20.4667H11.1633V19.4667H22.0175V20.4667ZM11.1633 20.4667C8.75923 20.4667 7.16443 18.1485 7.79871 15.9923L8.75806 16.2745C8.30529 17.8137 9.45111 19.4667 11.1633 19.4667V20.4667ZM8.27839 16.6334H3.49665V15.6334H8.27839V16.6334ZM3.49665 16.6334C0.802341 16.6334 -0.881588 13.7167 0.465563 11.3834L1.33159 11.8834C0.369335 13.5501 1.57215 15.6334 3.49665 15.6334V16.6334ZM0.465563 11.3834L5.89265 1.9834L6.75868 2.4834L1.33159 11.8834L0.465563 11.3834ZM5.89265 1.9834C7.2398 -0.349939 10.6077 -0.349931 11.9548 1.9834L11.0888 2.4834C10.1266 0.816733 7.72093 0.816731 6.75868 2.4834L5.89265 1.9834ZM11.9548 1.9834L14.2967 6.03959L13.4306 6.53959L11.0888 2.4834L11.9548 1.9834ZM14.008 7.03959L14.4253 6.31673L15.2914 6.81673L14.874 7.53959L14.008 7.03959ZM14.4253 6.31673C15.3876 4.65007 17.7932 4.65007 18.7555 6.31673L17.8894 6.81673C17.3121 5.81673 15.8687 5.81673 15.2914 6.81673L14.4253 6.31673ZM18.7555 6.31673L24.1826 15.7167L23.3165 16.2167L17.8894 6.81673L18.7555 6.31673ZM24.1826 15.7167C25.1448 17.3834 23.942 19.4667 22.0175 19.4667V18.4667C23.1722 18.4667 23.8939 17.2167 23.3165 16.2167L24.1826 15.7167ZM22.0175 19.4667H11.1633V18.4667H22.0175V19.4667ZM11.1633 19.4667C9.31707 19.4667 8.13681 17.5515 8.89102 15.9232L9.7984 16.3435C9.34696 17.3181 10.0575 18.4667 11.1633 18.4667V19.4667ZM14.3508 16.6334H9.34471V15.6334H14.3508V16.6334ZM17.3819 11.3834C18.7291 13.7167 17.0451 16.6334 14.3508 16.6334V15.6334C16.2753 15.6334 17.4781 13.5501 16.5159 11.8834L17.3819 11.3834ZM14.874 7.03959L17.3819 11.3834L16.5159 11.8834L14.008 7.53959L14.874 7.03959ZM9.47938 14.8834L13.4306 8.03959L14.2967 8.53959L10.3454 15.3834L9.47938 14.8834ZM14.2967 8.03959L16.5159 11.8834L15.6499 12.3834L13.4306 8.53959L14.2967 8.03959ZM16.5159 11.8834C17.4781 13.5501 16.2753 15.6334 14.3508 15.6334V14.6334C15.5055 14.6334 16.2272 13.3834 15.6499 12.3834L16.5159 11.8834ZM14.3508 15.6334H9.91239V14.6334H14.3508V15.6334Z" fill="white"/>
</svg>
