<svg width="33" height="24" viewBox="0 0 33 24" fill="none" xmlns="http://www.w3.org/2000/svg">
<g id="Sky Blue" opacity="0.8">
<path d="M0 3.43352H29.0971C30.9657 3.43352 32.4805 4.71455 32.4805 6.29479V20.6011C32.4805 22.1814 30.9657 23.4624 29.0971 23.4624H16.2403H3.38339C1.51479 23.4624 0 22.1814 0 20.6011V3.43352Z" fill="#739DB3"/>
<path d="M0 7.72542V19.4566C0 21.0368 1.51479 22.3179 3.38339 22.3179H29.0971C30.9657 22.3179 32.4805 21.0368 32.4805 19.4566V7.43929C32.4805 5.85906 30.9657 4.57803 29.0971 4.57803H14.8869V6.00866C14.8869 6.9568 13.978 7.72542 12.8569 7.72542H0Z" fill="url(#paint0_linear_1251_467)"/>
<path d="M0 2.28901C0 1.02483 1.21184 0 2.70671 0H12.1802C13.6751 0 14.8869 1.02483 14.8869 2.28901V3.43352H0V2.28901Z" fill="#739DB3"/>
</g>
<defs>
<linearGradient id="paint0_linear_1251_467" x1="0" y1="0" x2="38.8725" y2="27.5414" gradientUnits="userSpaceOnUse">
<stop stop-color="#9AD0EC"/>
<stop offset="1" stop-color="#60A1C2"/>
</linearGradient>
</defs>
</svg>
